<mxfile host="Electron" agent="Mozilla/5.0 (Windows NT 10.0; Win64; x64) AppleWebKit/537.36 (KHTML, like Gecko) draw.io/24.7.17 Chrome/128.0.6613.36 Electron/32.0.1 Safari/537.36" version="24.7.17">
  <diagram name="Seite-1" id="6MNcUDQMgzK8KH8aU_t9">
    <mxGraphModel dx="941" dy="644" grid="1" gridSize="10" guides="1" tooltips="1" connect="1" arrows="1" fold="1" page="1" pageScale="1" pageWidth="827" pageHeight="1169" math="0" shadow="0">
      <root>
        <mxCell id="0" />
        <mxCell id="1" parent="0" />
        <mxCell id="y5Yrh8hnSSTDXiFZnK3w-8" style="edgeStyle=orthogonalEdgeStyle;rounded=0;orthogonalLoop=1;jettySize=auto;html=1;exitX=1;exitY=0.3333333333333333;exitDx=0;exitDy=0;exitPerimeter=0;" edge="1" parent="1" source="y5Yrh8hnSSTDXiFZnK3w-1" target="y5Yrh8hnSSTDXiFZnK3w-3">
          <mxGeometry relative="1" as="geometry">
            <Array as="points">
              <mxPoint x="240" y="280" />
            </Array>
          </mxGeometry>
        </mxCell>
        <mxCell id="y5Yrh8hnSSTDXiFZnK3w-9" style="edgeStyle=orthogonalEdgeStyle;rounded=0;orthogonalLoop=1;jettySize=auto;html=1;exitX=0.5;exitY=0.5;exitDx=0;exitDy=0;exitPerimeter=0;" edge="1" parent="1" source="y5Yrh8hnSSTDXiFZnK3w-1" target="y5Yrh8hnSSTDXiFZnK3w-6">
          <mxGeometry relative="1" as="geometry" />
        </mxCell>
        <mxCell id="y5Yrh8hnSSTDXiFZnK3w-10" style="edgeStyle=orthogonalEdgeStyle;rounded=0;orthogonalLoop=1;jettySize=auto;html=1;exitX=1;exitY=1;exitDx=0;exitDy=0;exitPerimeter=0;" edge="1" parent="1" source="y5Yrh8hnSSTDXiFZnK3w-1" target="y5Yrh8hnSSTDXiFZnK3w-4">
          <mxGeometry relative="1" as="geometry" />
        </mxCell>
        <mxCell id="y5Yrh8hnSSTDXiFZnK3w-11" style="edgeStyle=orthogonalEdgeStyle;rounded=0;orthogonalLoop=1;jettySize=auto;html=1;exitX=0;exitY=1;exitDx=0;exitDy=0;exitPerimeter=0;entryX=0;entryY=0.5;entryDx=0;entryDy=0;" edge="1" parent="1" source="y5Yrh8hnSSTDXiFZnK3w-1" target="y5Yrh8hnSSTDXiFZnK3w-5">
          <mxGeometry relative="1" as="geometry" />
        </mxCell>
        <mxCell id="y5Yrh8hnSSTDXiFZnK3w-1" value="Actor" style="shape=umlActor;verticalLabelPosition=bottom;verticalAlign=top;html=1;outlineConnect=0;" vertex="1" parent="1">
          <mxGeometry x="120" y="260" width="30" height="60" as="geometry" />
        </mxCell>
        <mxCell id="y5Yrh8hnSSTDXiFZnK3w-2" value="Startkapital eingeben" style="rounded=1;whiteSpace=wrap;html=1;" vertex="1" parent="1">
          <mxGeometry x="170" y="50" width="120" height="60" as="geometry" />
        </mxCell>
        <mxCell id="y5Yrh8hnSSTDXiFZnK3w-3" value="Zielkapital eingeben" style="rounded=1;whiteSpace=wrap;html=1;" vertex="1" parent="1">
          <mxGeometry x="390" y="130" width="120" height="60" as="geometry" />
        </mxCell>
        <mxCell id="y5Yrh8hnSSTDXiFZnK3w-4" value="Zeitraum eingeben" style="rounded=1;whiteSpace=wrap;html=1;" vertex="1" parent="1">
          <mxGeometry x="300" y="400" width="120" height="60" as="geometry" />
        </mxCell>
        <mxCell id="y5Yrh8hnSSTDXiFZnK3w-5" value="Anlagestrategie auswÃ¤hlen" style="rounded=1;whiteSpace=wrap;html=1;" vertex="1" parent="1">
          <mxGeometry x="480" y="490" width="120" height="60" as="geometry" />
        </mxCell>
        <mxCell id="y5Yrh8hnSSTDXiFZnK3w-6" value="Gewichtung pro Anlage berechnen nach Strategie in %" style="rounded=1;whiteSpace=wrap;html=1;" vertex="1" parent="1">
          <mxGeometry x="380" y="250" width="120" height="60" as="geometry" />
        </mxCell>
        <mxCell id="y5Yrh8hnSSTDXiFZnK3w-7" style="edgeStyle=orthogonalEdgeStyle;rounded=0;orthogonalLoop=1;jettySize=auto;html=1;exitX=0.5;exitY=0;exitDx=0;exitDy=0;exitPerimeter=0;entryX=0.058;entryY=0.842;entryDx=0;entryDy=0;entryPerimeter=0;" edge="1" parent="1" source="y5Yrh8hnSSTDXiFZnK3w-1" target="y5Yrh8hnSSTDXiFZnK3w-2">
          <mxGeometry relative="1" as="geometry" />
        </mxCell>
        <mxCell id="y5Yrh8hnSSTDXiFZnK3w-14" value="" style="endArrow=none;dashed=1;html=1;rounded=0;entryX=0.558;entryY=0.875;entryDx=0;entryDy=0;entryPerimeter=0;exitX=0.25;exitY=0;exitDx=0;exitDy=0;" edge="1" parent="1" source="y5Yrh8hnSSTDXiFZnK3w-6" target="y5Yrh8hnSSTDXiFZnK3w-2">
          <mxGeometry width="50" height="50" relative="1" as="geometry">
            <mxPoint x="390" y="360" as="sourcePoint" />
            <mxPoint x="440" y="310" as="targetPoint" />
          </mxGeometry>
        </mxCell>
        <mxCell id="y5Yrh8hnSSTDXiFZnK3w-15" value="includes" style="text;html=1;align=center;verticalAlign=middle;whiteSpace=wrap;rounded=0;" vertex="1" parent="1">
          <mxGeometry x="280" y="200" width="60" height="30" as="geometry" />
        </mxCell>
        <mxCell id="y5Yrh8hnSSTDXiFZnK3w-16" value="" style="endArrow=none;dashed=1;html=1;rounded=0;exitX=0.75;exitY=0;exitDx=0;exitDy=0;" edge="1" parent="1" source="y5Yrh8hnSSTDXiFZnK3w-6" target="y5Yrh8hnSSTDXiFZnK3w-3">
          <mxGeometry width="50" height="50" relative="1" as="geometry">
            <mxPoint x="390" y="360" as="sourcePoint" />
            <mxPoint x="440" y="310" as="targetPoint" />
            <Array as="points" />
          </mxGeometry>
        </mxCell>
        <mxCell id="y5Yrh8hnSSTDXiFZnK3w-17" value="includes" style="text;html=1;align=center;verticalAlign=middle;whiteSpace=wrap;rounded=0;" vertex="1" parent="1">
          <mxGeometry x="460" y="210" width="60" height="30" as="geometry" />
        </mxCell>
        <mxCell id="y5Yrh8hnSSTDXiFZnK3w-18" value="" style="endArrow=none;dashed=1;html=1;rounded=0;" edge="1" parent="1" source="y5Yrh8hnSSTDXiFZnK3w-4">
          <mxGeometry width="50" height="50" relative="1" as="geometry">
            <mxPoint x="390" y="360" as="sourcePoint" />
            <mxPoint x="440" y="310" as="targetPoint" />
          </mxGeometry>
        </mxCell>
        <mxCell id="y5Yrh8hnSSTDXiFZnK3w-19" value="includes" style="text;html=1;align=center;verticalAlign=middle;whiteSpace=wrap;rounded=0;" vertex="1" parent="1">
          <mxGeometry x="414" y="360" width="60" height="30" as="geometry" />
        </mxCell>
        <mxCell id="y5Yrh8hnSSTDXiFZnK3w-20" value="" style="endArrow=none;dashed=1;html=1;rounded=0;exitX=0.808;exitY=0.058;exitDx=0;exitDy=0;exitPerimeter=0;" edge="1" parent="1" source="y5Yrh8hnSSTDXiFZnK3w-5">
          <mxGeometry width="50" height="50" relative="1" as="geometry">
            <mxPoint x="390" y="360" as="sourcePoint" />
            <mxPoint x="440" y="310" as="targetPoint" />
          </mxGeometry>
        </mxCell>
        <mxCell id="y5Yrh8hnSSTDXiFZnK3w-21" value="includes" style="text;html=1;align=center;verticalAlign=middle;whiteSpace=wrap;rounded=0;" vertex="1" parent="1">
          <mxGeometry x="520" y="415" width="60" height="30" as="geometry" />
        </mxCell>
      </root>
    </mxGraphModel>
  </diagram>
</mxfile>
